# Blender v2.76 (sub 0) OBJ File: ''
# www.blender.org
mtllib render_card.mtl
o CardShape
v 3.753913 -2.127368 -0.034018
v 3.753914 2.127366 0.034017
v 3.753914 -2.127368 0.034017
v 3.753913 2.127366 -0.034018
v 3.741046 2.208608 -0.034018
v 3.741047 2.208608 0.034017
v 3.741047 -2.208610 0.034017
v 3.741046 -2.208610 -0.034018
v 3.703704 2.281898 -0.034018
v 3.703705 2.281898 0.034016
v 3.703705 -2.281899 0.034016
v 3.703704 -2.281899 -0.034018
v -3.645542 2.340060 0.034016
v -3.703705 2.281898 -0.034018
v -3.703704 2.281898 0.034016
v -3.645543 2.340060 -0.034018
v -3.741047 2.208608 -0.034018
v -3.741047 2.208608 0.034016
v -3.753915 2.127366 -0.034018
v -3.753915 2.127366 0.034016
v -3.753915 -2.127368 0.034016
v -3.753915 -2.127368 -0.034018
v -3.741047 -2.208610 -0.034018
v -3.741047 -2.208610 0.034016
v -3.703705 -2.281899 -0.034018
v -3.703704 -2.281899 0.034016
v 3.645541 -2.340061 0.034017
v 3.703704 -2.281899 -0.034018
v 3.703705 -2.281899 0.034016
v 3.645541 -2.340061 -0.034018
v 3.572252 -2.377404 0.034016
v 3.572252 -2.377404 -0.034018
v 3.491011 -2.390271 0.034017
v 3.491011 -2.390271 -0.034018
v -3.491011 -2.390271 -0.034018
v -3.491011 -2.390271 0.034017
v -3.572253 -2.377404 0.034017
v -3.572253 -2.377404 -0.034018
v -3.645542 -2.340061 0.034016
v -3.645543 -2.340061 -0.034018
v -3.703704 -2.281899 0.034016
v -3.703705 -2.281899 -0.034018
v 3.703705 2.281898 0.034016
v 3.645541 2.340060 -0.034018
v 3.645541 2.340060 0.034017
v 3.703704 2.281898 -0.034018
v 3.572252 2.377403 -0.034018
v 3.572252 2.377403 0.034016
v 3.491011 2.390270 -0.034018
v 3.491011 2.390270 0.034017
v -3.491011 2.390270 0.034017
v -3.491011 2.390270 -0.034018
v -3.572253 2.377403 -0.034018
v -3.572253 2.377403 0.034017
v -3.645543 2.340060 -0.034018
v -3.645542 2.340060 0.034016
v 3.753913 2.127366 -0.034018
v 3.491011 -2.390271 -0.034018
v 3.491011 2.390270 -0.034018
v 3.753913 -2.127368 -0.034018
v 3.741046 2.208608 -0.034018
v -3.491011 2.390270 -0.034018
v 3.572252 2.377403 -0.034018
v 3.572252 -2.377404 -0.034018
v 3.741046 -2.208610 -0.034018
v 3.645541 2.340060 -0.034018
v 3.703704 2.281898 -0.034018
v -3.753915 2.127366 -0.034018
v -3.572253 2.377403 -0.034018
v 3.703704 -2.281899 -0.034018
v 3.645541 -2.340061 -0.034018
v -3.753915 -2.127368 -0.034018
v -3.741047 2.208608 -0.034018
v -3.703705 2.281898 -0.034018
v -3.645543 2.340060 -0.034018
v -3.491011 -2.390271 -0.034018
v -3.741047 -2.208610 -0.034018
v -3.572253 -2.377404 -0.034018
v -3.645543 -2.340061 -0.034018
v -3.703705 -2.281899 -0.034018
v 3.491011 2.390270 0.034017
v 3.753914 -2.127368 0.034017
v 3.753914 2.127366 0.034017
v 3.703705 2.281898 0.034016
v 3.741047 2.208608 0.034017
v 3.645541 2.340060 0.034017
v 3.572252 2.377403 0.034016
v -3.491011 2.390270 0.034017
v -3.753915 2.127366 0.034016
v -3.645542 2.340060 0.034016
v -3.572253 2.377403 0.034017
v -3.703704 2.281898 0.034016
v -3.741047 2.208608 0.034016
v -3.753915 -2.127368 0.034016
v -3.491011 -2.390271 0.034017
v -3.703704 -2.281899 0.034016
v -3.741047 -2.208610 0.034016
v -3.645542 -2.340061 0.034016
v -3.572253 -2.377404 0.034017
v 3.491011 -2.390271 0.034017
v 3.572252 -2.377404 0.034016
v 3.645541 -2.340061 0.034017
v 3.703705 -2.281899 0.034016
v 3.741047 -2.208610 0.034017
vt 0.928962 0.471394
vt 0.935989 0.039799
vt 0.936118 0.471393
vt 0.929090 0.039799
vt 0.929015 0.031870
vt 0.936064 0.031869
vt 0.936063 0.479225
vt 0.929017 0.479225
vt 0.929209 0.023949
vt 0.935870 0.023950
vt 0.935870 0.487133
vt 0.929209 0.487132
vt 0.951604 0.494385
vt 0.944803 0.486540
vt 0.951803 0.486538
vt 0.944999 0.494378
vt 0.944806 0.478729
vt 0.951797 0.478728
vt 0.944739 0.470898
vt 0.951866 0.470899
vt 0.951752 0.039799
vt 0.944852 0.039799
vt 0.944798 0.031971
vt 0.951804 0.031969
vt 0.944997 0.024129
vt 0.951608 0.024136
vt 0.983284 0.030248
vt 0.976566 0.022466
vt 0.983091 0.022473
vt 0.976367 0.030248
vt 0.983271 0.037978
vt 0.976383 0.037980
vt 0.983277 0.045698
vt 0.976377 0.045697
vt 0.976326 0.753361
vt 0.983328 0.753361
vt 0.983262 0.761186
vt 0.976393 0.761186
vt 0.983284 0.769024
vt 0.976373 0.769024
vt 0.983087 0.776848
vt 0.976564 0.776841
vt 0.967359 0.771034
vt 0.960588 0.763139
vt 0.967544 0.763136
vt 0.960768 0.771027
vt 0.960581 0.755275
vt 0.967549 0.755274
vt 0.960523 0.747442
vt 0.967606 0.747442
vt 0.967514 0.039799
vt 0.960615 0.039799
vt 0.960572 0.031967
vt 0.967554 0.031961
vt 0.960774 0.024112
vt 0.967357 0.024119
vt 0.017050 0.467846
vt 0.043712 0.009701
vt 0.043712 0.494508
vt 0.017050 0.036363
vt 0.018355 0.476085
vt 0.751776 0.494508
vt 0.035473 0.493203
vt 0.035473 0.011006
vt 0.018355 0.028124
vt 0.028040 0.489416
vt 0.022142 0.483517
vt 0.778438 0.467846
vt 0.760015 0.493203
vt 0.022142 0.020691
vt 0.028040 0.014793
vt 0.778438 0.036363
vt 0.777133 0.476085
vt 0.773346 0.483518
vt 0.767448 0.489416
vt 0.751776 0.009701
vt 0.777133 0.028124
vt 0.760015 0.011006
vt 0.767448 0.014793
vt 0.773346 0.020691
vt 0.751776 0.991958
vt 0.778438 0.533813
vt 0.778438 0.965296
vt 0.773346 0.980968
vt 0.777133 0.973535
vt 0.767448 0.986866
vt 0.760015 0.990653
vt 0.043712 0.991958
vt 0.017050 0.965296
vt 0.028041 0.986866
vt 0.035473 0.990653
vt 0.022142 0.980968
vt 0.018355 0.973535
vt 0.017050 0.533813
vt 0.043712 0.507151
vt 0.022142 0.518141
vt 0.018355 0.525574
vt 0.028041 0.512243
vt 0.035473 0.508456
vt 0.751776 0.507151
vt 0.760015 0.508456
vt 0.767448 0.512243
vt 0.773346 0.518141
vt 0.777133 0.525574
vn 0.996900 -0.078500 -0.000000
vn 0.996900 0.078500 -0.000000
vn 0.951100 0.309000 -0.000000
vn 0.951100 -0.309000 -0.000000
vn 0.891000 0.454000 -0.000000
vn 0.891000 -0.454000 -0.000000
vn -0.707100 0.707100 0.000000
vn -0.809000 0.587800 0.000000
vn -0.951100 0.309000 0.000000
vn -0.996900 0.078500 -0.000000
vn -0.996900 -0.078500 0.000000
vn -0.951100 -0.309000 0.000000
vn -0.891000 -0.454000 0.000000
vn 0.587800 -0.809000 -0.000000
vn 0.707100 -0.707100 -0.000000
vn 0.309000 -0.951100 -0.000000
vn 0.078500 -0.996900 0.000000
vn -0.078500 -0.996900 0.000000
vn -0.309000 -0.951100 -0.000000
vn -0.587800 -0.809000 0.000000
vn -0.707100 -0.707100 0.000000
vn 0.707100 0.707100 -0.000000
vn 0.587800 0.809000 -0.000000
vn 0.309000 0.951100 0.000000
vn 0.078500 0.996900 -0.000000
vn -0.078500 0.996900 -0.000000
vn -0.309000 0.951100 0.000000
vn -0.454000 0.891000 0.000000
vn 0.000000 0.000000 -1.000000
vn 0.000000 0.000000 1.000000
usemtl metal
s 1
f 1/1/1 2/2/2 3/3/1
f 4/4/2 2/2/2 1/1/1
f 2/2/2 5/5/3 6/6/3
f 4/4/2 5/5/3 2/2/2
f 7/7/4 1/1/1 3/3/1
f 8/8/4 1/1/1 7/7/4
f 5/5/3 9/9/5 6/6/3
f 6/6/3 9/9/5 10/10/5
f 11/11/6 8/8/4 7/7/4
f 12/12/6 8/8/4 11/11/6
f 13/13/7 14/14/8 15/15/8
f 16/16/7 14/14/8 13/13/7
f 14/14/8 17/17/9 15/15/8
f 15/15/8 17/17/9 18/18/9
f 17/17/9 19/19/10 18/18/9
f 18/18/9 19/19/10 20/20/10
f 19/19/10 21/21/11 20/20/10
f 22/22/11 21/21/11 19/19/10
f 21/21/11 23/23/12 24/24/12
f 22/22/11 23/23/12 21/21/11
f 23/23/12 25/25/13 24/24/12
f 24/24/12 25/25/13 26/26/13
f 27/27/14 28/28/15 29/29/15
f 30/30/14 28/28/15 27/27/14
f 31/31/16 30/30/14 27/27/14
f 32/32/16 30/30/14 31/31/16
f 33/33/17 32/32/16 31/31/16
f 34/34/17 32/32/16 33/33/17
f 35/35/18 33/33/17 36/36/18
f 34/34/17 33/33/17 35/35/18
f 37/37/19 35/35/18 36/36/18
f 38/38/19 35/35/18 37/37/19
f 39/39/20 38/38/19 37/37/19
f 40/40/20 38/38/19 39/39/20
f 41/41/21 40/40/20 39/39/20
f 42/42/21 40/40/20 41/41/21
f 43/43/22 44/44/23 45/45/23
f 46/46/22 44/44/23 43/43/22
f 44/44/23 47/47/24 45/45/23
f 45/45/23 47/47/24 48/48/24
f 47/47/24 49/49/25 48/48/24
f 48/48/24 49/49/25 50/50/25
f 49/49/25 51/51/26 50/50/25
f 52/52/26 51/51/26 49/49/25
f 51/51/26 53/53/27 54/54/27
f 52/52/26 53/53/27 51/51/26
f 53/53/27 55/55/28 54/54/27
f 54/54/27 55/55/28 56/56/28
f 57/57/29 58/58/29 59/59/29
f 60/60/29 58/58/29 57/57/29
f 59/59/29 61/61/29 57/57/29
f 59/59/29 58/58/29 62/62/29
f 63/63/29 61/61/29 59/59/29
f 60/60/29 64/64/29 58/58/29
f 65/65/29 64/64/29 60/60/29
f 66/66/29 61/61/29 63/63/29
f 67/67/29 61/61/29 66/66/29
f 62/62/29 58/58/29 68/68/29
f 68/68/29 69/69/29 62/62/29
f 70/70/29 64/64/29 65/65/29
f 71/71/29 64/64/29 70/70/29
f 68/68/29 58/58/29 72/72/29
f 73/73/29 69/69/29 68/68/29
f 74/74/29 69/69/29 73/73/29
f 75/75/29 69/69/29 74/74/29
f 72/72/29 58/58/29 76/76/29
f 76/76/29 77/77/29 72/72/29
f 78/78/29 77/77/29 76/76/29
f 79/79/29 77/77/29 78/78/29
f 80/80/29 77/77/29 79/79/29
f 81/81/30 82/82/30 83/83/30
f 84/84/30 83/83/30 85/85/30
f 86/86/30 83/83/30 84/84/30
f 87/87/30 83/83/30 86/86/30
f 81/81/30 83/83/30 87/87/30
f 88/88/30 82/82/30 81/81/30
f 89/89/30 82/82/30 88/88/30
f 90/90/30 88/88/30 91/91/30
f 92/92/30 88/88/30 90/90/30
f 93/93/30 88/88/30 92/92/30
f 89/89/30 88/88/30 93/93/30
f 94/94/30 82/82/30 89/89/30
f 95/95/30 82/82/30 94/94/30
f 96/96/30 94/94/30 97/97/30
f 98/98/30 94/94/30 96/96/30
f 99/99/30 94/94/30 98/98/30
f 95/95/30 94/94/30 99/99/30
f 100/100/30 82/82/30 95/95/30
f 101/101/30 82/82/30 100/100/30
f 102/102/30 82/82/30 101/101/30
f 103/103/30 82/82/30 102/102/30
f 104/104/30 82/82/30 103/103/30
